<svg xmlns="http://www.w3.org/2000/svg" viewBox="0 0 395.64 395.64"><defs><style>.cls-1{fill:#fff;}.cls-2{fill:#193651;}.cls-3{fill:#4fbf9f;}.cls-4{fill:#fdbf5e;}.cls-5{fill:#d3d7da;}</style></defs><title>Asset 14main-podacha</title><g id="Layer_2" data-name="Layer 2"><g id="Layer_1-2" data-name="Layer 1"><polygon class="cls-1" points="380.77 333.19 356.07 389.43 331.31 333.19 380.77 333.19"/><rect class="cls-1" x="331.38" y="179.78" width="48.81" height="153.41"/><path class="cls-2" d="M316.51,0V34.59H289.29V187.28h12.35V47h14.8V187.35h8.73V333.83a4,4,0,0,0,.06.91,2.17,2.17,0,0,0,.52.91l24.76,56.24a5.94,5.94,0,0,0,5.56,3.68c2.46,0,5-1.23,5.56-3.68l24.76-56.24a1.54,1.54,0,0,1,.32-.91,3.08,3.08,0,0,0,.32-.91V187.28h8.6V0Zm39.56,374L341.2,339.33h29.67ZM374.63,327H338.17V187.28h36.46Z"/><rect class="cls-3" x="329.44" y="12.93" width="53.27" height="161.42"/><polygon class="cls-1" points="90.89 6.21 6.21 90.89 6.21 389.43 268.28 389.43 268.28 6.21 90.89 6.21"/><rect class="cls-4" x="56.89" y="137.24" width="161.36" height="73.57"/><rect class="cls-2" x="87.14" y="168.15" width="100.14" height="12.35"/><path class="cls-5" d="M90.89,90.89V7.43c0-.65-.65-.65-1.23-.65L7.43,89.66c-.65.65,0,1.23.65,1.23Z"/><path class="cls-2" d="M88.37,0,0,88.37V395.64H274.49V0ZM84.69,21V84.69H21ZM262.14,383.29H12.35V97H97V12.35h165l.06,370.94Z"/><rect class="cls-2" x="49.45" y="254.71" width="174.93" height="12.35"/><rect class="cls-2" x="49.45" y="290.52" width="174.93" height="12.35"/><rect class="cls-2" x="49.45" y="327.05" width="174.93" height="12.35"/><rect class="cls-2" x="143.45" y="48.81" width="12.35" height="12.35"/><rect class="cls-2" x="176.16" y="48.81" width="12.35" height="12.35"/><rect class="cls-2" x="208.36" y="48.81" width="12.35" height="12.35"/></g></g></svg>