<svg xmlns="http://www.w3.org/2000/svg" viewBox="0 0 395.64 392.47"><defs><style>.cls-1{fill:#fff;}.cls-2{fill:#d3d7da;}.cls-3{fill:#193651;}.cls-4{fill:#2ea2db;}</style></defs><title>Asset 18main-realizaciya</title><g id="Layer_2" data-name="Layer 2"><g id="Layer_1-2" data-name="Layer 1"><polygon class="cls-1" points="197.82 59.87 130.46 99.43 197.82 138.35 265.18 99.43 197.82 59.87"/><polygon class="cls-2" points="197.82 138.35 197.82 216.89 265.18 177.91 265.18 99.43 197.82 138.35"/><polygon class="cls-2" points="130.46 99.43 130.46 177.91 197.82 216.89 197.82 138.35 130.46 99.43"/><path class="cls-3" d="M270.74,96.33l-2.46-2.46h0l-67.36-39a5.69,5.69,0,0,0-6.21,0l-67.36,39c-.65,0-1.87,1.87-2.46,2.46a24.86,24.86,0,0,0-.65,3.1v78.48a6.46,6.46,0,0,0,3.1,5.56l67.36,38.92h0a24.86,24.86,0,0,0,3.1.65c.65,0,2.46-.65,3.1-.65h0l67.36-38.92a6.46,6.46,0,0,0,3.1-5.56V99.43A24.86,24.86,0,0,0,270.74,96.33Zm-79.13,110-55-32.13V110l55,32.13Zm6.21-74.8L142.16,99.43l55-32.13,55,32.13ZM259,174.23l-55,32.13V142.1L259,110Z"/><path class="cls-1" d="M388.53,98.2c0-9.24-7.43-17.33-16.68-17.33S355.17,87.66,353.94,97l-13.58,87.34a17.93,17.93,0,0,0-10-13.19,19.39,19.39,0,0,0-25.34,8.66l-23.47,47c-1.23,1.87-2.46,4.33-4.33,5.56l-30.9,22.24a23.17,23.17,0,0,0-4.91,6.21L222.32,299.7l77.9,38.92,8.66-17.33L380.57,249a31.28,31.28,0,0,0,9.24-22.24Z"/><path class="cls-1" d="M148.69,254.58l-30.9-22.24c-1.87-1.23-3.1-3.68-4.33-5.56L90,179.79a19.45,19.45,0,0,0-25.34-8.66,18,18,0,0,0-9.89,12.93L41.7,96.91c-1.23-9.24-8.66-16.1-17.91-16.1S7.11,88.89,7.11,98.2L5.88,226.78A31.44,31.44,0,0,0,15.13,249l71.11,72.34,8.66,17.33,77.9-39.56-19.14-38.34A26.26,26.26,0,0,0,148.69,254.58Z"/><polygon class="cls-4" points="210.81 293.5 197.82 318.84 184.82 293.5 85.92 342.95 108.15 386.85 287.48 386.85 309.72 342.95 210.81 293.5"/><path class="cls-3" d="M384.52,253.35a38.47,38.47,0,0,0,11.12-26.57L394.41,97.56a23.46,23.46,0,0,0-23.47-23.47c-11.77,0-22.24,9.24-24.11,21l-10.54,71.69c-1.23-.65-21-14.87-36.46,9.24l-23.47,47c-.65,1.23-1.87,2.46-2.46,3.68L243.59,249l-.65.65a42.12,42.12,0,0,0-6.21,8L220.06,290.4l-12.35-6.21-9.89,21.07-9.89-20.43L175.58,291,158.9,258.27c-1.23-3.1-3.68-5.56-6.21-8l-30.9-22.88a12.21,12.21,0,0,1-2.46-3.68l-23.47-47C81.65,153.8,60,165.56,59.41,167.44L48.23,95.68a24.6,24.6,0,0,0-24.11-21c-13,0-22.88,10.54-22.88,23.47L0,226.14c0,9.89,3.68,19.78,11.12,26.57L82.23,324.4l5.56,10.54-9.24,5,26.57,52.56H292.4L319,339.91l-9.24-5,5.56-10.54ZM19.78,244.69a25.94,25.94,0,0,1-7.43-17.91L13.58,98.2A11.08,11.08,0,0,1,24.69,87.08,12,12,0,0,1,36.46,97.62l12.35,86.56c-.65,5,0,10.54,2.46,14.87L70.4,237.39a7.54,7.54,0,0,1,.65,6.21,8.75,8.75,0,0,1-1.1,2.2,6,6,0,0,0-.52,6.21l.19.39a6,6,0,0,0,10.08,1.1,17,17,0,0,0,3.1-6.21,19.33,19.33,0,0,0-1.23-15.45L62.45,194.14l-1.23-9.89c.65-3.68,3.1-6.21,6.21-8,6.21-3.1,13.58,0,16.68,6.21l23.47,47a17,17,0,0,0,5.56,7.43l31.55,22.88a11.29,11.29,0,0,1,3.1,4.33l16.68,32.78L98.26,330,92.7,318.9Zm264,136H111.9L94.58,346.12l87.79-44.54,15.45,30.9,15.45-30.9,87.79,43.89ZM304.16,317,297.37,330,231.24,296.6l16.68-32.78a11.29,11.29,0,0,1,3.1-4.33l30.32-22.24.65-.65a21.21,21.21,0,0,0,5.56-7.43l23.4-46.93A13.22,13.22,0,0,1,327.63,176c3.1,1.87,5.56,4.33,6.21,8l-1.23,9.89-19.14,37.69A20.57,20.57,0,0,0,315.22,253a6,6,0,0,0,10.28-.84l.13-.32a6.2,6.2,0,0,0-.65-6.4,7.19,7.19,0,0,1-.39-8.21l19.14-38.34a25.08,25.08,0,0,0,2.46-14.8l12.35-87.14a11.54,11.54,0,0,1,11.77-10.54c6.21,0,10.54,5,11.12,11.12l1.87,129.23a24.57,24.57,0,0,1-7.43,17.91Z"/><rect class="cls-3" x="142.8" y="349.74" width="12.35" height="12.35"/><rect class="cls-3" x="191.61" y="349.74" width="12.35" height="12.35"/><rect class="cls-3" x="240.48" y="349.74" width="12.35" height="12.35"/><rect class="cls-3" x="191.61" y="3.62" width="12.35" height="36.46"/><rect class="cls-3" x="112.15" y="-1.78" width="12.35" height="48.23" transform="translate(14.58 83.47) rotate(-41.2)"/><rect class="cls-3" x="253.18" y="16.03" width="48.23" height="12.35" transform="translate(77.88 216.16) rotate(-48.78)"/></g></g></svg>