<svg xmlns="http://www.w3.org/2000/svg" viewBox="0 0 393.83 394.6"><defs><style>.cls-1{fill:#2ea2db;}.cls-2{fill:#193651;}.cls-3{fill:#fdbf5e;}</style></defs><title>Asset 17main-vyznachennya-peremizhcya</title><g id="Layer_2" data-name="Layer 2"><g id="Layer_1-2" data-name="Layer 1"><path class="cls-1" d="M255.94,102a38.93,38.93,0,0,1,10.54-15.45V47s0-16.68-18.55-21.66c0,0,7.43-13-9.89-19.14H168.79S129.87,8.66,126.13,47V86.56s9.24,4.33,10.54,19.78L136,73.57s4.91-19.14,21.66-19.78c0,0,27.8,3.68,48.81-9.89,0,0,20.43,7.43,22.88,7.43,0,0,26,5.56,24.76,32.13Z"/><path class="cls-2" d="M346.25,191.68V204h28.64l-42.21,53.66v-11c0-39.56-35.23-71.69-78.48-71.69H243.65l-1.87,1.87c-13.58,13.58-29,20.43-45.12,20.43-19.78,0-35.23-11.12-44.48-20.43L150.3,175H139.18c-43.25,0-78.48,32.13-78.48,71.69v85.46L0,385.29l8.15,9.31L128.06,289.42l-8.15-9.31L73,321.29v-74.6c0-32.78,29.67-59.35,66.13-59.35h6.21c15.45,14.8,33.36,22.24,51.33,22.24,18.55,0,36.46-8,51.91-22.24h5.56c36.46,0,66.13,26.57,66.13,59.35v26.7l-62,78.8,9.7,7.63L381.48,215.6v23.66h12.35V191.68Z"/><circle class="cls-1" cx="263.37" cy="355.49" r="21.66"/><circle class="cls-3" cx="124.32" cy="281.92" r="21.66"/><rect class="cls-2" x="156.44" y="239.26" width="12.35" height="12.35"/><rect class="cls-2" x="189.8" y="239.26" width="12.35" height="12.35"/><rect class="cls-2" x="223.22" y="239.26" width="12.35" height="12.35"/><rect class="cls-2" x="233.36" y="337.85" width="12.41" height="12.41" transform="translate(-175.3 404.46) rotate(-63.43)"/><rect class="cls-2" x="167.22" y="303.86" width="12.41" height="12.41" transform="translate(-181.47 326.52) rotate(-63.43)"/><rect class="cls-2" x="145.6" y="292.74" width="12.41" height="12.41" transform="translate(-183.47 301.03) rotate(-63.43)"/><rect class="cls-2" x="189.5" y="315.6" width="12.41" height="12.41" transform="translate(-179.65 352.93) rotate(-63.43)"/><rect class="cls-2" x="211.11" y="326.72" width="12.41" height="12.41" transform="translate(-177.65 378.41) rotate(-63.43)"/><circle class="cls-1" cx="263.37" cy="355.49" r="21.66"/><circle class="cls-3" cx="124.32" cy="281.92" r="21.66"/><path class="cls-2" d="M255.94,21.66A22.78,22.78,0,0,0,254.71,13C252.83,7.43,247.92,3.1,240.48.65L239.26,0H168.79c-14.87,1.23-44.48,11.77-48.23,46.35V90.25l3.1,1.87s5,2.78,7.11,13.25v.52h.06V106h0c1.81,17.45,9.44,36.53,20.43,51.2,12.93,17.26,29,26.76,45.25,26.76,16.94,0,33.55-10.21,46.74-28.83,10.41-14.74,17.26-32.78,18.75-49.33l.65-1.87a30.68,30.68,0,0,1,8.66-13L273.2,89V47C273.26,40.21,269.58,27.86,255.94,21.66Zm-124.25,26C135.37,15.52,166.92,13,168.15,13h68c1.87,1.23,5,2.46,5.56,5a8.31,8.31,0,0,1-.65,5l-3.68,6.79,8,1.87c13.58,3.1,14.22,14.22,14.22,15.45V71.18c-4.33-16.68-19.14-24.11-28.44-26-1.23-.65-12.35-4.33-21.66-7.43l-3.1-1.23L203.31,39c-12.35,8-28.44,9.24-36.46,9.24a47,47,0,0,1-8.66-.65H157c-14.8.65-22.24,12.35-25.34,19.14V47.64ZM196.59,171c-26.25,0-50-36.07-52.88-67.1h0l-.32-18.1-.52-11.64c.65-2.46,4.33-13.58,14.87-14.22,1.23,0,4.33.65,9.24.65,11.12,0,27.22-1.87,40.79-9.89,9.24,3.1,19.14,6.79,21,6.79s21,4.91,19.78,26l.84,18.94C247.66,133.3,223.22,171,196.59,171Z"/></g></g></svg>