<?xml version="1.0" encoding="utf-8"?>
<!-- Generator: Adobe Illustrator 20.1.0, SVG Export Plug-In . SVG Version: 6.00 Build 0)  -->
<svg version="1.1" id="Слой_1" xmlns="http://www.w3.org/2000/svg" xmlns:xlink="http://www.w3.org/1999/xlink" x="0px" y="0px"
	 viewBox="0 0 1280 450" style="enable-background:new 0 0 1280 450;" xml:space="preserve">
<style type="text/css">
	.st0{fill:#777777;}
	.st1{fill:#FFFFFF;}
	.st2{fill:#D1C3B8;}
	.st3{fill:#193746;}
	.st4{fill:none;}
	.st5{fill:#00051A;}
</style>
<g>
	<path d="M1122.2,288.3V308h19.8v-19.8H1122.2z M1130.5,305h-5.4v-13.7h5.4V305z M1138.9,305h-5.4v-5.4h5.4V305z M1138.9,296.6h-5.4
		v-5.4h5.4V296.6z"/>
	<path d="M1089.7,288.3V308h19.8v-19.8H1089.7z M1098,305h-5.4v-13.7h5.4V305z M1106.4,305h-5.4v-5.4h5.4V305z M1106.4,296.6h-5.4
		v-5.4h5.4V296.6z"/>
	<path d="M1153.3,288.3V308h19.8v-19.8H1153.3z M1161.7,305h-5.4v-13.7h5.4V305z M1170.1,305h-5.4v-5.4h5.4V305z M1170.1,296.6h-5.4
		v-5.4h5.4V296.6z"/>
	<path d="M1122.2,316.2V336h19.8v-19.8H1122.2z M1130.5,333h-5.4v-13.7h5.4V333z M1138.9,333h-5.4v-5.4h5.4V333z M1138.9,324.6h-5.4
		v-5.4h5.4V324.6z"/>
	<path d="M1089.7,316.2V336h19.8v-19.8H1089.7z M1098,333h-5.4v-13.7h5.4V333z M1106.4,333h-5.4v-5.4h5.4V333z M1106.4,324.6h-5.4
		v-5.4h5.4V324.6z"/>
	<path d="M1153.3,316.2V336h19.8v-19.8H1153.3z M1161.7,333h-5.4v-13.7h5.4V333z M1170.1,333h-5.4v-5.4h5.4V333z M1170.1,324.6h-5.4
		v-5.4h5.4V324.6z"/>
	<polygon points="1112.4,415.1 1112.4,411.5 1093.9,411.5 1093.9,415.1 1097.6,415.1 1097.6,418.4 1088.4,418.4 1088.4,422 
		1107,422 1107,418.4 1101.2,418.4 1101.2,415.1 	"/>
	<path d="M1184,264.5v-10.3h-11v-12.3h2.7v-3h-2.7v-2h4.8v-3h-4.8v-2.1h6.6v-3h-6.6v-3.6h-3v3.6h-6.6v3h6.6v2.1h-4.8v3h4.8v2h-2.7v3
		h2.7v12.3h-30.3v-6.9h-6.1v-10.5h0h-3h0v10.5h-6.1v6.9h-44.3v10.3h-8.5v9.3h3.8v153.3h2.1h0.9v-62.5h3.3v3.3h-1.6v3.6h13.1v-3.6
		h-7.8v-3.3h4.7V361h-11.6v-86.9h107.2v95.6h-17.7v3.6h3.8v3.3h-11.4v3.6h18.6v-3.6h-3.6v-3.3h10.3v53.8h3V273.8h3.8v-9.3H1184z
		 M1127.4,250.4h9.2v3.8h-9.2V250.4z M1083.1,257.2h97.9v7.3h-97.9V257.2z M1189.4,270.7h-114.8v-3.3h114.8V270.7z"/>
	<circle cx="1135.5" cy="417.5" r="1.1"/>
</g>
<g>
	<rect x="-0.3" y="427.2" class="st0" width="1280.3" height="22.8"/>
</g>
<path d="M575.4,378.4c-10.6,0-19.3,8.7-19.3,19.3c0,10.1,7.9,18.5,17.8,19.2v12.8h3v-12.8c9.9-0.8,17.8-9.1,17.8-19.2
	C594.7,387.1,586,378.4,575.4,378.4z M576.9,414.3v-12.9h-3.1v12.9c-8.4-0.8-15.1-7.9-15.1-16.6c0-9.2,7.5-16.6,16.6-16.6
	c9.2,0,16.6,7.5,16.6,16.6C592,406.4,585.4,413.5,576.9,414.3z"/>
<path d="M998.2,378.4c-10.6,0-19.3,8.7-19.3,19.3c0,10.1,7.9,18.5,17.8,19.2v12.8h3v-12.8c9.9-0.8,17.8-9.1,17.8-19.2
	C1017.5,387.1,1008.9,378.4,998.2,378.4z M999.8,414.3v-12.9h-3.1v12.9c-8.4-0.8-15.1-7.9-15.1-16.6c0-9.2,7.5-16.6,16.6-16.6
	c9.2,0,16.6,7.5,16.6,16.6C1014.9,406.4,1008.2,413.5,999.8,414.3z"/>
<path d="M409,378.4c-10.6,0-19.3,8.7-19.3,19.3c0,10.1,7.9,18.5,17.8,19.2v12.8h3v-12.8c9.9-0.8,17.8-9.1,17.8-19.2
	C428.3,387.1,419.7,378.4,409,378.4z M410.5,413.9v-12.6h-3v12.6c-8.3-0.8-14.8-7.7-14.8-16.2c0-9,7.3-16.3,16.3-16.3
	c9,0,16.3,7.3,16.3,16.3C425.3,406.2,418.8,413.2,410.5,413.9z"/>
<path d="M174.5,378.4c-10.6,0-19.3,8.7-19.3,19.3c0,10.1,7.9,18.5,17.8,19.2v12.8h3v-12.8c9.9-0.8,17.8-9.1,17.8-19.2
	C193.8,387.1,185.1,378.4,174.5,378.4z M176,413.9v-12.6h-3v12.6c-8.3-0.8-14.8-7.7-14.8-16.2c0-9,7.3-16.3,16.3-16.3
	c9,0,16.3,7.3,16.3,16.3C190.8,406.2,184.3,413.2,176,413.9z"/>
<path d="M719.9,378.4c-10.6,0-19.3,8.7-19.3,19.3c0,10.1,7.9,18.5,17.8,19.2v12.8h3v-12.8c9.9-0.8,17.8-9.1,17.8-19.2
	C739.2,387.1,730.6,378.4,719.9,378.4z M721.5,414.3v-12.9h-3.1v12.9c-8.5-0.8-15.1-7.9-15.1-16.6c0-9.2,7.5-16.6,16.6-16.6
	c9.2,0,16.6,7.5,16.6,16.6C736.6,406.4,729.9,413.5,721.5,414.3z"/>
<path d="M832.9,378.4c-10.6,0-19.3,8.7-19.3,19.3c0,10.1,7.9,18.5,17.8,19.2v12.8h3v-12.8c9.9-0.8,17.8-9.1,17.8-19.2
	C852.2,387.1,843.5,378.4,832.9,378.4z M834.4,413.9v-12.6h-3v12.6c-8.3-0.8-14.8-7.7-14.8-16.2c0-9,7.3-16.3,16.3-16.3
	c9,0,16.3,7.3,16.3,16.3C849.2,406.2,842.7,413.2,834.4,413.9z"/>
<path d="M766.3,385.9c-9.1,0-16.5,7.4-16.5,16.5c0,8.7,6.7,15.8,15.2,16.4v10.9h2.6v-10.9c8.5-0.7,15.2-7.8,15.2-16.4
	C782.8,393.3,775.4,385.9,766.3,385.9z M767.6,416.2v-10.8H765v10.8c-7.1-0.7-12.6-6.6-12.6-13.8c0-7.7,6.2-13.9,13.9-13.9
	s13.9,6.2,13.9,13.9C780.2,409.6,774.7,415.6,767.6,416.2z"/>
<path d="M75.5,378.4c-10.6,0-19.3,8.7-19.3,19.3c0,10.1,7.9,18.5,17.8,19.2v12.8h3v-12.8c9.9-0.8,17.8-9.1,17.8-19.2
	C94.8,387.1,86.1,378.4,75.5,378.4z M77,414.3v-12.9h-3.1v12.9c-8.5-0.8-15.1-7.9-15.1-16.6c0-9.2,7.5-16.6,16.6-16.6
	c9.2,0,16.6,7.5,16.6,16.6C92.1,406.4,85.4,413.5,77,414.3z"/>
<path d="M121.8,385.9c-9.1,0-16.5,7.4-16.5,16.5c0,8.7,6.7,15.8,15.2,16.4v10.9h2.6v-10.9c8.5-0.7,15.2-7.8,15.2-16.4
	C138.3,393.3,130.9,385.9,121.8,385.9z M123.1,416.2v-10.8h-2.6v10.8c-7.1-0.7-12.6-6.6-12.6-13.8c0-7.7,6.2-13.9,13.9-13.9
	s13.9,6.2,13.9,13.9C135.7,409.6,130.2,415.6,123.1,416.2z"/>
<path d="M953.6,385.9c-9.1,0-16.5,7.4-16.5,16.5c0,8.7,6.7,15.8,15.2,16.4v10.9h2.6v-10.9c8.5-0.7,15.2-7.8,15.2-16.4
	C970.1,393.3,962.7,385.9,953.6,385.9z M954.9,416.2v-10.8h-2.6v10.8c-7.1-0.7-12.6-6.6-12.6-13.8c0-7.7,6.2-13.9,13.9-13.9
	c7.7,0,13.9,6.2,13.9,13.9C967.5,409.6,961.9,415.6,954.9,416.2z"/>
<path d="M603,403.6c-5.6,0-10.2,4.6-10.2,10.2c0,5.2,3.9,9.5,8.9,10.1v5.8h2.6v-5.8c5-0.6,8.9-4.9,8.9-10.1
	C613.2,408.2,608.6,403.6,603,403.6z M604.3,421.6v-6h-2.6v6c-3.7-0.6-6.6-3.9-6.6-7.8c0-4.3,3.5-7.9,7.9-7.9c4.3,0,7.9,3.5,7.9,7.9
	C610.9,417.7,608,421,604.3,421.6z"/>
<g>
	<path d="M803,376.4l2.2-12.4l1.2,0l-4.5-5.1h-4.9l-4.5,5.1h1.2l2.2,12.4h2.5v33c-0.8,0.1-1.4,0.8-1.4,1.6v13h-1.7v3.6h8.1v-3.6
		h-1.7v-13c0-0.8-0.6-1.5-1.4-1.6v-33H803z"/>
	<polygon class="st1" points="795.5,365.6 803.5,365.6 801.8,375.2 797.2,375.2 	"/>
</g>
<g>
	<path d="M1048.4,376.4l2.2-12.4l1.2,0l-4.5-5.1h-4.9l-4.5,5.1h1.2l2.2,12.4h2.5v33c-0.8,0.1-1.4,0.8-1.4,1.6v13h-1.7v3.6h8.1v-3.6
		h-1.7v-13c0-0.8-0.6-1.5-1.4-1.6v-33H1048.4z"/>
	<polygon class="st1" points="1040.9,365.6 1048.9,365.6 1047.2,375.2 1042.6,375.2 	"/>
</g>
<g>
	<path d="M446.4,376.4l2.2-12.4l1.2,0l-4.5-5.1h-4.9L436,364h1.2l2.2,12.4h2.5v33c-0.8,0.1-1.4,0.8-1.4,1.6v13h-1.7v3.6h8.1v-3.6
		h-1.7v-13c0-0.8-0.6-1.5-1.4-1.6v-33H446.4z"/>
	<polygon class="st1" points="438.9,365.6 446.9,365.6 445.2,375.2 440.7,375.2 	"/>
</g>
<g>
	<path d="M209.1,376.4l2.2-12.4l1.2,0l-4.5-5.1h-4.9l-4.5,5.1h1.2l2.2,12.4h2.5v33c-0.8,0.1-1.4,0.8-1.4,1.6v13h-1.7v3.6h8.1v-3.6
		H208v-13c0-0.8-0.6-1.5-1.4-1.6v-33H209.1z"/>
	<polygon class="st1" points="201.6,365.6 209.6,365.6 207.9,375.2 203.3,375.2 	"/>
</g>
<g>
	<rect x="457.1" y="415.6" class="st2" width="50.6" height="2.8"/>
	<path d="M507.8,399v1.4h-50.6V399h-2.8v28.7h2.8v-6.6h50.6v6.6h2.8V399H507.8z M507.8,403.2v2.4h-50.6v-2.4H507.8z M507.8,408.3
		v2.4h-50.6v-2.4H507.8z M457.2,418.4v-4.9h50.6v4.9H457.2z"/>
</g>
<g>
	<rect x="220.1" y="415.6" class="st2" width="50.6" height="2.8"/>
	<path d="M270.8,399v1.4h-50.6V399h-2.8v28.7h2.8v-6.6h50.6v6.6h2.8V399H270.8z M270.8,403.2v2.4h-50.6v-2.4H270.8z M270.8,408.3
		v2.4h-50.6v-2.4H270.8z M220.2,418.4v-4.9h50.6v4.9H220.2z"/>
</g>
<g>
	<rect x="629" y="415.7" class="st2" width="50.6" height="2.8"/>
	<path d="M679.7,399.1v1.4h-50.6v-1.4h-2.8v28.7h2.8v-6.6h50.6v6.6h2.8v-28.7H679.7z M679.7,403.3v2.4h-50.6v-2.4H679.7z
		 M679.7,408.4v2.4h-50.6v-2.4H679.7z M629.1,418.5v-4.9h50.6v4.9H629.1z"/>
</g>
<g>
	<rect x="868.4" y="415.7" class="st2" width="50.6" height="2.8"/>
	<path d="M919,399.1v1.4h-50.6v-1.4h-2.8v28.7h2.8v-6.6H919v6.6h2.8v-28.7H919z M919,403.3v2.4h-50.6v-2.4H919z M919,408.4v2.4
		h-50.6v-2.4H919z M868.5,418.5v-4.9H919v4.9H868.5z"/>
</g>
<g>
	<rect x="535.4" y="398.9" class="st3" width="9.1" height="17.5"/>
	<g>
		<path d="M544.5,398.9v17.4h-9.1v-17.4h-2.8v2.8H529v-2.8h-1.4h-1.4v10.5h0v10.5c-1,0.2-1.8,1.1-1.8,2.2v1h-2.3v4.8h11v-4.8h-2.3
			v-1c0-1.1-0.8-2-1.8-2.2v-5.2h3.7v1.7v2.8h2.8h9.1h2.4h0.3v-20.2H544.5z M529,411.9v-2.5h0v-4.9h3.7v7.4H529z"/>
		<circle cx="527.6" cy="397.9" r="1"/>
	</g>
</g>
<g>
	<g>
		<rect x="320.7" y="402.7" class="st4" width="7.3" height="23.2"/>
	</g>
	<g>
		<path class="st4" d="M328,402.7v23.2h7.8v-23.2H328z M332.8,418.3h-2v-7.2h2V418.3z"/>
	</g>
	<path d="M334.3,365.2v19.1h19.1v-19.1H334.3z M336.3,382.3v-15.1h6.5v15.1H336.3z M351.4,373.8h-6.5v-6.5h6.5V373.8z M344.9,375.8
		h6.5v6.5h-6.5V375.8z"/>
	<path d="M304.1,365.2v19.1h19.1v-19.1H304.1z M306.1,382.3v-15.1h6.5v15.1H306.1z M321.2,373.8h-6.5v-6.5h6.5V373.8z M314.6,375.8
		h6.5v6.5h-6.5V375.8z"/>
	<g>
		<rect x="330.8" y="411.1" class="st5" width="2" height="7.2"/>
	</g>
	<path d="M370.3,425.9h-6.8v-69.2h5.7V349h-40.1h-1h-40.1v7.7h5.7v69.2h-4.8v2h4.8h25.6h8.7h1h8.7h25.6h6.8V425.9z M335.8,425.9
		h-6.7h-1h-6.7v-23.2h6.7h1h6.7V425.9z M361.4,425.9h-23.6v-25.2h-8.7h-1h-8.7v25.2h-23.6v-69H328h1h32.4V425.9z M329.1,354.7h-1
		H290V351H328h1h38.1v3.7H329.1z"/>
</g>
<rect x="1122.2" y="404.1" width="3.2" height="23"/>
<rect x="1122.2" y="402.8" width="17" height="3.5"/>
<rect x="1139.1" y="402.8" width="2.8" height="24.4"/>
<path d="M1147.9,147.1c-1.7-0.2-3.4-0.1-5.1,0.2c-2.7-4.6-7.3-7.6-12.6-8.3c-3.6-0.4-7.2,0.3-10.4,2.1c-2.3-1.6-5-2.7-7.7-3
	c-5.2-0.6-10.3,1.2-13.9,4.8c-1.3-0.5-2.7-0.9-4.1-1c-9.4-1.1-17.8,5.7-18.9,14.9c-0.5,4.5,0.7,9,3.5,12.5c2.8,3.6,6.8,5.8,11.3,6.4
	c2.3,0.3,4.7,0.1,6.9-0.6c2.7,2.8,6.3,4.6,10.2,5.1c3.6,0.4,7.2-0.3,10.3-2.1c2.3,1.6,5,2.7,7.8,3c0.7,0.1,1.3,0.1,2,0.1
	c3.3,0,6.6-1,9.4-2.9c2.2,1.4,4.7,2.3,7.2,2.6c9.4,1.1,17.8-5.7,18.9-14.9C1163.8,156.7,1157.2,148.2,1147.9,147.1z M1159.7,165.7
	c-0.9,7.5-7.7,13.1-15.5,12.2c-2.4-0.3-4.7-1.2-6.7-2.7l-0.9-0.7l-0.9,0.7c-2.9,2.2-6.5,3.2-10.1,2.8c-2.6-0.3-5.1-1.4-7.1-3
	l-0.9-0.7l-0.9,0.6c-2.7,1.8-6,2.6-9.2,2.2c-3.5-0.4-6.6-2.1-8.9-4.8l-0.7-0.8l-1,0.4c-2.1,0.8-4.3,1.1-6.5,0.8
	c-3.7-0.4-7-2.3-9.3-5.2c-2.3-2.9-3.3-6.6-2.9-10.3c0.9-7.5,7.8-13.1,15.5-12.2c1.5,0.2,2.9,0.6,4.2,1.2l1,0.5l0.8-0.9
	c3.1-3.5,7.4-5.2,12-4.6c2.5,0.3,5,1.3,7,3l0.9,0.7l0.9-0.6c2.7-1.8,5.9-2.6,9.2-2.2c4.6,0.6,8.7,3.4,10.8,7.7l0.6,1.1l1.2-0.3
	c1.7-0.5,3.4-0.6,5.1-0.4C1155.1,151.1,1160.6,158,1159.7,165.7z"/>
<path d="M158.1,152.1c-1.5-3.7-5.1-6.1-9.1-6.1c-2.4,0-4.8,0.9-6.6,2.6c-0.7-0.3-1.4-0.6-2.1-0.8c-1.2-7.3-7.6-12.9-15.3-12.9
	c-1.9,0-3.8,0.4-5.6,1.1c-2.9-4.4-7.7-7-12.9-7c-5.1,0-9.8,2.5-12.7,6.7c-1.6-0.5-3.2-0.8-4.8-0.8c-8.5,0-15.5,6.9-15.5,15.5
	c0,8.5,6.9,15.5,15.5,15.5c2.4,0,4.8-0.6,7-1.7c2.9,2.7,6.5,4.1,10.4,4.1c4,0,7.9-1.6,10.8-4.4c2.4,1.4,5,2.1,7.7,2.1
	c2.2,0,4.3-0.5,6.2-1.3c1.8,1.7,4.1,2.7,6.8,2.7c0.4,0,0.8,0,1.2-0.1c0.6,4.9,4.8,8.6,9.8,8.6c3.4,0,6.5-1.7,8.3-4.6
	c0.9,0.3,1.8,0.4,2.8,0.4c5.4,0,9.8-4.4,9.8-9.8C170,155.6,164.4,150.7,158.1,152.1z M125.2,163c-2.6,0-5-0.8-7.2-2.2l-1-0.7
	l-0.8,0.9c-2.4,2.8-5.9,4.4-9.5,4.4c-3.5,0-6.8-1.4-9.2-4l-0.8-0.8l-1,0.6c-2.1,1.2-4.3,1.9-6.6,1.9c-7,0-12.7-5.7-12.7-12.7
	c0-7,5.7-12.7,12.7-12.7c1.7,0,3.3,0.3,4.9,1l1.1,0.5l0.6-1.1c2.3-4,6.4-6.3,10.9-6.3c4.6,0,8.9,2.6,11.1,6.7l0.6,1.2l1.2-0.6
	c1.8-0.9,3.7-1.3,5.5-1.3c6,0,11.1,4.2,12.3,9.9c-5.1,0.3-9.2,4.6-9.2,9.8c0,1.8,0.5,3.4,1.3,4.8C128.2,162.7,126.7,163,125.2,163z
	 M160.1,169c-1,0-2-0.2-2.9-0.6l-1.1-0.5l-0.5,1.1c-1.2,2.6-3.7,4.2-6.5,4.2c-4,0-7.3-3.3-7.3-7.3l0.1-2.1l-1.7,0.5
	c-0.8,0.2-1.4,0.3-2,0.3c-1.6,0-3.1-0.5-4.3-1.5c-0.8-0.6-1.4-1.3-1.9-2.1c-0.6-1.1-1-2.4-1-3.7c0-3.9,3.1-7.1,7-7.3
	c0.1,0,0.2,0,0.3,0c0.9,0,1.7,0.2,2.5,0.5c0.5,0.2,0.9,0.4,1.4,0.7l0.9,0.6l0.7-0.8c1.4-1.6,3.3-2.4,5.4-2.4c3.3,0,6.2,2.2,7,5.4
	l0.4,1.4l1.3-0.5c0.8-0.3,1.6-0.4,2.4-0.4c4,0,7.3,3.3,7.3,7.3C167.4,165.7,164.1,169,160.1,169z"/>
<path d="M888.3,135.4c-1.5-3.7-5.1-6.1-9.1-6.1c-2.4,0-4.8,0.9-6.6,2.6c-1.4-0.7-2.9-1-4.4-1c-5.4,0-9.8,4.4-9.8,9.8
	c0,5.4,4.4,9.8,9.8,9.8c0.4,0,0.8,0,1.2-0.1c0.6,4.9,4.8,8.6,9.8,8.6c3.4,0,6.5-1.7,8.3-4.6c0.9,0.3,1.8,0.4,2.8,0.4
	c5.4,0,9.8-4.4,9.8-9.8C900.2,138.9,894.6,134,888.3,135.4z M890.6,152.4c-1,0-2-0.2-2.9-0.6l-1.2-0.5l-0.5,1.1
	c-1.3,2.6-3.8,4.2-6.7,4.2c-4.1,0-7.4-3.3-7.4-7.5l0.1-2.1l-1.8,0.5c-0.8,0.2-1.5,0.3-2.1,0.3c-4.1,0-7.4-3.3-7.4-7.4
	s3.3-7.4,7.4-7.4c1.4,0,2.8,0.4,4,1.2l0.9,0.6l0.7-0.8c1.4-1.6,3.4-2.5,5.5-2.5c3.4,0,6.3,2.3,7.2,5.6l0.4,1.4l1.3-0.5
	c0.9-0.3,1.7-0.5,2.4-0.5c4.1,0,7.4,3.3,7.4,7.4C898,149.1,894.7,152.4,890.6,152.4z"/>
<path d="M1038.7,217.1c-1.5-3.7-5.1-6.1-9.1-6.1c-2.4,0-4.8,0.9-6.6,2.6c-1.4-0.7-2.9-1-4.4-1c-5.4,0-9.8,4.4-9.8,9.8
	c0,5.4,4.4,9.8,9.8,9.8c0.4,0,0.8,0,1.2-0.1c0.6,4.9,4.8,8.6,9.8,8.6c3.4,0,6.5-1.7,8.3-4.6c0.9,0.3,1.8,0.4,2.8,0.4
	c5.4,0,9.8-4.4,9.8-9.8C1050.6,220.6,1045,215.7,1038.7,217.1z M1041,234.2c-1,0-2-0.2-2.9-0.6l-1.2-0.5l-0.5,1.1
	c-1.3,2.6-3.8,4.2-6.7,4.2c-4.1,0-7.4-3.3-7.4-7.5l0.1-2.1l-1.8,0.5c-0.8,0.2-1.5,0.3-2.1,0.3c-4.1,0-7.4-3.3-7.4-7.4
	c0-4.1,3.3-7.4,7.4-7.4c1.4,0,2.8,0.4,4,1.2l0.9,0.6l0.7-0.8c1.4-1.6,3.4-2.5,5.5-2.5c3.4,0,6.3,2.3,7.2,5.6l0.4,1.4l1.3-0.5
	c0.9-0.3,1.7-0.5,2.4-0.5c4.1,0,7.4,3.3,7.4,7.4C1048.4,230.8,1045.1,234.2,1041,234.2z"/>
<path d="M427.9,143.7c-0.4-2.4-1.6-4.5-3.5-5.9c-1.5-1.1-3.4-1.7-5.3-1.7h0c-0.8-1.5-2-2.8-3.4-3.9c-1.6-1.1-3.4-1.9-5.3-2.2
	c-0.6-0.8-1.3-1.6-2.1-2.2c-1.6-1.1-3.4-1.8-5.3-1.8c-2.8,0-5.5,1.4-7.2,3.6c-0.3,0.4-0.6,0.9-0.8,1.4c-3.4,0.3-6.6,2-8.6,4.8
	c-3.9,5.3-2.8,12.7,2.5,16.6c2.1,1.5,4.5,2.3,7,2.3c2.7,0,5.3-0.9,7.4-2.5c3.3,1.7,7.4,1.7,10.7,0c1.5,1.1,3.3,1.6,5.1,1.6
	c2.8,0,5.5-1.4,7.2-3.7C427.6,148.5,428.2,146.1,427.9,143.7z M424.5,148.9c-1.2,1.6-3,2.5-5,2.5c-1.3,0-2.6-0.4-3.6-1.2
	c-0.1-0.1-0.1-0.1-0.2-0.2l-1.1-1l-1,0.6c-2.9,1.8-6.9,1.8-9.8,0l-1.1-0.7l-0.9,0.9c-3.1,3-8.3,3.4-11.8,0.8c-2-1.5-3.3-3.6-3.6-6
	c-0.4-2.4,0.2-4.9,1.7-6.8c1.8-2.4,4.5-3.7,7.5-3.7h0l1.2,0l0.4-1.1c0.2-0.7,0.5-1.2,0.8-1.7c2-2.7,5.9-3.3,8.6-1.3
	c0.7,0.5,1.3,1.2,1.7,2l0.4,0.7l0.9,0.1c1.7,0.1,3.3,0.7,4.7,1.8c1.3,1,2.3,2.3,3,3.8l0.5,1.1l1.2-0.2c1.6-0.2,3.2,0.2,4.4,1.1
	c1.3,1,2.2,2.4,2.4,4C425.9,146,425.5,147.6,424.5,148.9z"/>
<path d="M1192.4,144.1c-1.5-3.7-5.1-6.1-9.1-6.1c-2.4,0-4.8,0.9-6.6,2.6c-1.4-0.7-2.9-1-4.4-1c-5.4,0-9.8,4.4-9.8,9.8
	c0,5.4,4.4,9.8,9.8,9.8c0.4,0,0.8,0,1.2-0.1c0.6,4.9,4.8,8.6,9.8,8.6c3.4,0,6.5-1.7,8.3-4.6c0.9,0.3,1.8,0.4,2.8,0.4
	c5.4,0,9.8-4.4,9.8-9.8C1204.3,147.6,1198.7,142.7,1192.4,144.1z M1194.4,161c-1,0-2-0.2-2.9-0.6l-1.1-0.5l-0.5,1.1
	c-1.2,2.6-3.7,4.2-6.5,4.2c-4,0-7.3-3.3-7.3-7.3l0.1-2.1l-1.7,0.5c-0.8,0.2-1.4,0.3-2,0.3c-4,0-7.3-3.3-7.3-7.3c0-4,3.3-7.3,7.3-7.3
	c1.4,0,2.7,0.4,3.9,1.2l0.9,0.6l0.7-0.8c1.4-1.6,3.3-2.4,5.4-2.4c3.3,0,6.2,2.2,7,5.4l0.4,1.4l1.3-0.5c0.8-0.3,1.6-0.4,2.4-0.4
	c4,0,7.3,3.3,7.3,7.3C1201.7,157.7,1198.4,161,1194.4,161z"/>
<path d="M578.6,268.5c-1.7-0.2-3.4-0.1-5.1,0.2c-2.7-4.6-7.3-7.6-12.6-8.3c-3.6-0.4-7.2,0.3-10.4,2.1c-2.3-1.6-5-2.7-7.7-3
	c-5.2-0.6-10.3,1.2-13.9,4.8c-1.3-0.5-2.7-0.9-4.1-1c-9.4-1.1-17.8,5.7-18.9,14.9c-0.5,4.5,0.7,9,3.5,12.5c2.8,3.6,6.8,5.8,11.3,6.4
	c2.3,0.3,4.7,0.1,6.9-0.6c2.7,2.8,6.3,4.6,10.2,5.1c3.6,0.4,7.2-0.3,10.3-2.1c2.3,1.6,5,2.7,7.8,3c0.7,0.1,1.3,0.1,2,0.1
	c3.3,0,6.6-1,9.4-2.9c2.2,1.4,4.7,2.3,7.2,2.6c9.4,1.1,17.8-5.6,18.9-14.9C594.6,278.1,587.9,269.6,578.6,268.5z M590.4,287
	c-0.9,7.5-7.7,13.1-15.5,12.2c-2.4-0.3-4.7-1.2-6.7-2.7l-0.9-0.7l-0.9,0.7c-2.9,2.2-6.5,3.2-10.1,2.8c-2.6-0.3-5.1-1.4-7.1-3
	l-0.9-0.7l-0.9,0.6c-2.7,1.8-6,2.6-9.2,2.2c-3.5-0.4-6.6-2.1-8.9-4.8l-0.7-0.8l-1,0.4c-2.1,0.8-4.3,1.1-6.5,0.8
	c-3.7-0.4-7-2.3-9.3-5.2c-2.3-2.9-3.3-6.6-2.9-10.3c0.9-7.5,7.8-13.1,15.5-12.2c1.5,0.2,2.9,0.6,4.2,1.2l1,0.5l0.8-0.9
	c3.1-3.5,7.4-5.2,12-4.6c2.5,0.3,5,1.3,7,3l0.9,0.7l0.9-0.6c2.7-1.8,5.9-2.6,9.2-2.2c4.6,0.6,8.7,3.4,10.8,7.7l0.6,1.1l1.2-0.3
	c1.7-0.5,3.4-0.6,5.1-0.4C585.8,272.5,591.3,279.4,590.4,287z"/>
<path d="M623.2,265.5c-1.5-3.7-5.1-6.1-9.1-6.1c-2.4,0-4.8,0.9-6.6,2.6c-1.4-0.7-2.9-1-4.4-1c-5.4,0-9.8,4.4-9.8,9.8
	c0,5.4,4.4,9.8,9.8,9.8c0.4,0,0.8,0,1.2-0.1c0.6,4.9,4.8,8.6,9.8,8.6c3.4,0,6.5-1.7,8.3-4.6c0.9,0.3,1.8,0.4,2.8,0.4
	c5.4,0,9.8-4.4,9.8-9.8C635,269,629.4,264.1,623.2,265.5z M625.2,282.4c-1,0-2-0.2-2.9-0.6l-1.1-0.5l-0.5,1.1
	c-1.2,2.6-3.7,4.2-6.5,4.2c-4,0-7.3-3.3-7.3-7.3l0.1-2.1l-1.7,0.5c-0.8,0.2-1.4,0.3-2,0.3c-4,0-7.3-3.3-7.3-7.3c0-4,3.3-7.3,7.3-7.3
	c1.4,0,2.7,0.4,3.9,1.2l0.9,0.6l0.7-0.8c1.4-1.6,3.3-2.4,5.4-2.4c3.3,0,6.2,2.2,7,5.4l0.4,1.4l1.3-0.5c0.8-0.3,1.6-0.4,2.4-0.4
	c4,0,7.3,3.3,7.3,7.3C632.4,279.1,629.2,282.4,625.2,282.4z"/>
<path d="M738.8,134.3c-1.9,0.1-3.8,0.5-5.6,1.3c-3-4.3-7.9-6.8-13.1-6.7c-5.1,0.1-9.7,2.8-12.5,7c-1.6-0.5-3.2-0.7-4.8-0.6
	c-8.1,0.2-14.6,6.7-15,14.6c-0.4,0-0.7-0.1-1.1-0.1h0c-0.8-1.5-2-2.8-3.4-3.9c-1.6-1.1-3.4-1.9-5.3-2.2c-0.6-0.8-1.3-1.6-2.1-2.2
	c-1.6-1.1-3.4-1.8-5.3-1.8c-2.8,0-5.5,1.4-7.2,3.7c-0.3,0.4-0.6,0.9-0.8,1.4c-3.4,0.3-6.6,2-8.6,4.8c-1.9,2.6-2.7,5.7-2.2,8.8
	c0.5,3.1,2.1,5.9,4.7,7.8c2.1,1.5,4.5,2.3,7,2.3c2.7,0,5.3-0.9,7.4-2.6c3.3,1.7,7.4,1.7,10.7,0c1.5,1.1,3.3,1.6,5.1,1.6
	c2.8,0,5.5-1.4,7.2-3.7c0.2-0.2,0.3-0.5,0.5-0.7c2.6,1.8,5.8,2.9,9.3,2.8c2.4-0.1,4.8-0.7,7-1.9c2.9,2.6,6.7,3.9,10.6,3.8
	c4-0.1,7.8-1.8,10.6-4.7c2.4,1.3,5.1,1.9,7.8,1.9c8.5-0.2,15.3-7.4,15-15.9S747.4,134,738.8,134.3z M692.7,161.6
	c-0.2,0.3-0.3,0.7-0.6,1c-1.2,1.6-3,2.5-4.9,2.5c-1.3,0-2.6-0.4-3.6-1.2c-0.1-0.1-0.1-0.1-0.2-0.2l-1.1-1l-1,0.6
	c-2.9,1.8-6.8,1.8-9.7,0l-1.1-0.7l-0.9,0.9c-3.1,3-8.2,3.3-11.7,0.8c-2-1.4-3.2-3.6-3.6-6c-0.4-2.4,0.2-4.8,1.7-6.8
	c1.7-2.3,4.4-3.7,7.4-3.7h0l1.1,0l0.4-1.1c0.2-0.7,0.5-1.2,0.8-1.6c1.2-1.6,3-2.5,4.9-2.5c1.3,0,2.6,0.4,3.6,1.2
	c0.7,0.5,1.3,1.2,1.7,1.9l0.4,0.7l0.8,0.1c1.7,0.1,3.3,0.7,4.6,1.7c1.3,0.9,2.3,2.2,2.9,3.7l0.5,1.1l1.2-0.2
	c0.7-0.1,1.4-0.1,2.1,0.1c0.8,0.2,1.6,0.5,2.3,1c0.5,0.4,0.9,0.8,1.3,1.3c0.5,0.6,0.8,1.3,1,2.1
	C693.5,158.7,693.3,160.2,692.7,161.6z M739.6,162.4c-2.6,0.1-5.1-0.6-7.2-2l-1-0.7l-0.8,1c-2.3,2.8-5.8,4.5-9.4,4.6
	c-3.5,0.1-6.8-1.2-9.3-3.7l-0.8-0.8l-0.9,0.6c-2,1.3-4.2,2-6.5,2.1c-3.1,0.1-5.9-0.9-8.1-2.7c0.7-3.4-0.5-7-3.4-9.2
	c-0.5-0.3-0.9-0.6-1.4-0.9c0-6.8,5.5-12.4,12.3-12.6c1.7,0,3.3,0.2,4.9,0.8l1.1,0.4l0.6-1.1c2.2-4,6.2-6.5,10.7-6.6
	c4.6-0.1,8.9,2.3,11.3,6.4l0.7,1.2l1.2-0.6c1.8-0.9,3.6-1.4,5.5-1.5c7-0.2,12.8,5.3,13,12.3C752.1,156.3,746.6,162.2,739.6,162.4z"
	/>
<path d="M296,233c-1.9,0.1-3.8,0.5-5.6,1.3c-3-4.3-7.9-6.8-13.1-6.7c-5.1,0.1-9.7,2.8-12.5,7c-1.6-0.5-3.2-0.7-4.8-0.6
	c-8.1,0.2-14.6,6.7-15,14.6c-0.4,0-0.7-0.1-1.1-0.1h0c-0.8-1.5-2-2.8-3.4-3.9c-1.6-1.1-3.4-1.9-5.3-2.2c-0.6-0.8-1.3-1.6-2.1-2.2
	c-1.6-1.1-3.4-1.7-5.3-1.7c-2.8,0-5.5,1.4-7.2,3.7c-0.3,0.4-0.6,0.9-0.8,1.4c-3.4,0.3-6.6,2-8.6,4.8c-1.9,2.6-2.7,5.7-2.2,8.8
	c0.5,3.1,2.1,5.9,4.7,7.8c2.1,1.5,4.5,2.3,7,2.3c2.7,0,5.3-0.9,7.4-2.6c3.3,1.7,7.4,1.7,10.7,0c1.5,1.1,3.3,1.6,5.1,1.6
	c2.8,0,5.5-1.4,7.2-3.6c0.2-0.2,0.3-0.5,0.5-0.7c2.6,1.8,5.8,2.9,9.3,2.8c2.4-0.1,4.8-0.7,7-1.9c2.9,2.6,6.7,3.9,10.6,3.8
	c4-0.1,7.8-1.8,10.6-4.7c2.4,1.3,5.1,1.9,7.8,1.9c8.5-0.2,15.3-7.4,15-15.9C311.6,239.5,304.5,232.8,296,233z M249.8,260.4
	c-0.2,0.3-0.3,0.7-0.6,1c-1.2,1.6-3,2.5-4.9,2.5c-1.3,0-2.6-0.4-3.6-1.2c-0.1-0.1-0.1-0.1-0.2-0.2l-1.1-1l-1,0.6
	c-2.9,1.8-6.8,1.8-9.7,0l-1.1-0.7l-0.9,0.9c-3.1,3-8.2,3.3-11.7,0.8c-2-1.4-3.2-3.6-3.6-6c-0.4-2.4,0.2-4.8,1.7-6.8
	c1.7-2.3,4.4-3.7,7.4-3.7h0l1.1,0l0.4-1.1c0.2-0.7,0.5-1.2,0.8-1.6c1.2-1.6,3-2.5,4.9-2.5c1.3,0,2.6,0.4,3.6,1.2
	c0.7,0.5,1.3,1.2,1.7,1.9l0.4,0.7l0.8,0.1c1.7,0.1,3.3,0.7,4.6,1.7c1.3,0.9,2.3,2.2,2.9,3.7l0.5,1.1l1.2-0.2
	c0.7-0.1,1.4-0.1,2.1,0.1c0.8,0.2,1.6,0.5,2.3,1c0.5,0.4,0.9,0.8,1.3,1.2c0.5,0.6,0.8,1.3,1,2.1C250.6,257.5,250.5,259,249.8,260.4z
	 M296.8,261.2c-2.6,0.1-5.1-0.6-7.2-2l-1-0.7l-0.8,1c-2.3,2.8-5.8,4.5-9.4,4.6c-3.5,0.1-6.8-1.2-9.3-3.7l-0.8-0.8l-1,0.6
	c-2,1.3-4.2,2-6.5,2.1c-3.1,0.1-5.9-0.9-8.1-2.7c0.7-3.4-0.5-7-3.4-9.2c-0.5-0.3-0.9-0.6-1.4-0.9c0-6.8,5.5-12.4,12.3-12.6
	c1.7,0,3.3,0.2,4.9,0.8l1.1,0.4l0.6-1.1c2.2-4,6.2-6.5,10.7-6.6c4.6-0.1,8.9,2.3,11.3,6.4l0.7,1.2l1.2-0.6c1.8-0.9,3.6-1.4,5.5-1.5
	c7-0.2,12.8,5.3,13,12.3C309.3,255.1,303.8,261,296.8,261.2z"/>
<path d="M208.7,26.7c-1.9,0.1-3.8,0.5-5.6,1.3c-3-4.3-7.9-6.8-13.1-6.7c-5.1,0.1-9.7,2.8-12.5,7c-1.6-0.5-3.2-0.7-4.8-0.6
	c-8.1,0.2-14.6,6.7-15,14.6c-0.4,0-0.7-0.1-1.1-0.1h0c-0.8-1.5-2-2.8-3.4-3.9c-1.6-1.1-3.4-1.9-5.3-2.2c-0.6-0.8-1.3-1.6-2.1-2.2
	c-1.6-1.1-3.4-1.8-5.3-1.8c-2.8,0-5.5,1.4-7.2,3.7c-0.3,0.4-0.6,0.9-0.8,1.4c-3.4,0.3-6.6,2-8.6,4.8c-1.9,2.6-2.7,5.7-2.2,8.8
	c0.5,3.1,2.1,5.9,4.7,7.8c2.1,1.5,4.5,2.3,7,2.3c2.7,0,5.3-0.9,7.4-2.6c3.3,1.7,7.4,1.7,10.7,0c1.5,1.1,3.3,1.6,5.1,1.6
	c2.8,0,5.5-1.4,7.2-3.7c0.2-0.2,0.3-0.5,0.5-0.7c2.6,1.8,5.8,2.9,9.3,2.8c2.4-0.1,4.8-0.7,7-1.9c2.9,2.6,6.7,3.9,10.6,3.8
	c4-0.1,7.8-1.8,10.6-4.7c2.4,1.3,5.1,1.9,7.8,1.9c8.5-0.2,15.3-7.4,15-15.9S217.2,26.4,208.7,26.7z M162.6,54
	c-0.2,0.3-0.3,0.6-0.6,1c-1.2,1.6-3,2.5-4.9,2.5c-1.3,0-2.6-0.4-3.6-1.2c-0.1-0.1-0.1-0.1-0.2-0.2l-1.1-1l-1,0.6
	c-2.9,1.8-6.8,1.8-9.7,0l-1.1-0.7l-0.9,0.9c-3.1,3-8.2,3.3-11.7,0.8c-2-1.4-3.2-3.6-3.6-6c-0.4-2.4,0.2-4.8,1.7-6.8
	c1.7-2.3,4.4-3.7,7.4-3.7h0l1.1,0l0.4-1.1c0.2-0.7,0.5-1.2,0.8-1.6c1.2-1.6,3-2.5,4.9-2.5c1.3,0,2.6,0.4,3.6,1.2
	c0.7,0.5,1.3,1.2,1.7,1.9l0.4,0.7l0.8,0.1c1.7,0.1,3.3,0.7,4.6,1.7c1.3,0.9,2.3,2.2,2.9,3.7l0.5,1.1l1.2-0.2
	c0.7-0.1,1.4-0.1,2.1,0.1c0.8,0.2,1.6,0.5,2.3,1c0.5,0.4,0.9,0.8,1.3,1.2c0.5,0.6,0.8,1.3,1,2.1C163.3,51.1,163.2,52.6,162.6,54z
	 M209.5,54.8c-2.6,0.1-5.1-0.6-7.2-2l-1-0.7l-0.8,1c-2.3,2.8-5.8,4.5-9.4,4.6c-3.5,0.1-6.8-1.2-9.3-3.7l-0.8-0.8l-1,0.6
	c-2,1.3-4.2,2-6.5,2.1c-3.1,0.1-5.9-0.9-8.1-2.7c0.7-3.4-0.5-7-3.4-9.2c-0.5-0.3-0.9-0.6-1.4-0.9c0-6.8,5.5-12.4,12.3-12.6
	c1.7,0,3.3,0.2,4.9,0.8l1.1,0.4l0.6-1.1c2.2-4,6.2-6.5,10.7-6.6c4.6-0.1,8.9,2.3,11.3,6.4l0.7,1.2l1.2-0.6c1.8-0.9,3.6-1.4,5.5-1.5
	c7-0.2,12.8,5.3,13,12.3C222,48.8,216.5,54.6,209.5,54.8z"/>
<path d="M1004.1,33.2c-1.9,0.1-3.8,0.5-5.6,1.3c-3-4.3-7.9-6.8-13.1-6.7c-5.1,0.1-9.7,2.8-12.5,7c-1.6-0.5-3.2-0.7-4.8-0.6
	c-8.1,0.2-14.6,6.7-15,14.6c-0.4,0-0.7-0.1-1.1-0.1h0c-0.8-1.5-2-2.8-3.4-3.9c-1.6-1.1-3.4-1.9-5.3-2.2c-0.6-0.8-1.3-1.6-2.1-2.2
	c-1.6-1.1-3.4-1.8-5.3-1.8c-2.8,0-5.5,1.4-7.2,3.7c-0.3,0.4-0.6,0.9-0.8,1.4c-3.4,0.3-6.6,2-8.6,4.8c-1.9,2.6-2.7,5.7-2.2,8.8
	c0.5,3.1,2.1,5.9,4.7,7.8c2.1,1.5,4.5,2.3,7,2.3c2.7,0,5.3-0.9,7.4-2.6c3.3,1.7,7.4,1.7,10.7,0c1.5,1.1,3.3,1.6,5.1,1.6
	c2.8,0,5.5-1.4,7.2-3.6c0.2-0.2,0.3-0.5,0.5-0.7c2.6,1.8,5.8,2.9,9.3,2.8c2.4-0.1,4.8-0.7,7-1.9c2.9,2.6,6.7,3.9,10.6,3.8
	c4-0.1,7.8-1.8,10.6-4.7c2.4,1.3,5.1,1.9,7.8,1.9c8.5-0.2,15.3-7.4,15-15.9C1019.7,39.7,1012.6,32.9,1004.1,33.2z M957.9,60.5
	c-0.2,0.3-0.3,0.6-0.6,1c-1.2,1.6-3,2.5-4.9,2.5c-1.3,0-2.6-0.4-3.6-1.2c-0.1-0.1-0.1-0.1-0.2-0.2l-1.1-1l-1,0.6
	c-2.9,1.8-6.8,1.8-9.7,0l-1.1-0.7l-0.9,0.9c-3.1,3-8.2,3.3-11.7,0.8c-2-1.4-3.2-3.6-3.6-6c-0.4-2.4,0.2-4.8,1.7-6.8
	c1.7-2.3,4.4-3.7,7.4-3.7h0l1.1,0l0.4-1.1c0.2-0.7,0.5-1.2,0.8-1.6c1.2-1.6,3-2.5,4.9-2.5c1.3,0,2.6,0.4,3.6,1.2
	c0.7,0.5,1.3,1.2,1.7,1.9l0.4,0.7l0.8,0.1c1.7,0.1,3.3,0.7,4.6,1.7c1.3,0.9,2.3,2.2,2.9,3.7l0.5,1.1l1.2-0.2
	c0.7-0.1,1.4-0.1,2.1,0.1c0.8,0.2,1.6,0.5,2.3,1c0.5,0.4,0.9,0.8,1.3,1.2c0.5,0.6,0.8,1.3,1,2.1C958.7,57.6,958.6,59.1,957.9,60.5z
	 M1004.9,61.3c-2.6,0.1-5.1-0.6-7.2-2l-1-0.7l-0.8,1c-2.3,2.8-5.8,4.5-9.4,4.6c-3.5,0.1-6.8-1.2-9.3-3.7l-0.8-0.8l-1,0.6
	c-2,1.3-4.2,2-6.5,2.1c-3.1,0.1-5.9-0.9-8.1-2.7c0.7-3.4-0.5-7-3.4-9.2c-0.5-0.3-0.9-0.6-1.4-0.9c0-6.8,5.5-12.4,12.3-12.6
	c1.7,0,3.3,0.2,4.9,0.8l1.1,0.4l0.6-1.1c2.2-4,6.2-6.5,10.7-6.6c4.6-0.1,8.9,2.3,11.3,6.4l0.7,1.2l1.2-0.6c1.8-0.9,3.6-1.4,5.5-1.5
	c7-0.2,12.8,5.3,13,12.3C1017.4,55.3,1011.8,61.1,1004.9,61.3z"/>
<path d="M850.4,247c-0.4-2.4-1.6-4.5-3.5-5.9c-1.5-1.1-3.4-1.7-5.3-1.7h-0.1c-0.8-1.5-2-2.8-3.4-3.9c-1.6-1.1-3.4-1.9-5.3-2.2
	c-0.6-0.8-1.3-1.6-2.1-2.2c-1.6-1.1-3.4-1.8-5.3-1.8c-2.8,0-5.5,1.4-7.2,3.6c-0.3,0.4-0.6,0.9-0.8,1.4c-3.4,0.3-6.6,2-8.6,4.8
	c-3.9,5.3-2.8,12.7,2.5,16.6c2.1,1.5,4.5,2.3,7,2.3c2.7,0,5.3-0.9,7.4-2.5c3.3,1.7,7.4,1.7,10.7,0c1.5,1.1,3.3,1.6,5.1,1.6
	c2.8,0,5.5-1.4,7.2-3.6C850.1,251.8,850.7,249.4,850.4,247z M847.1,252.2c-1.2,1.6-3,2.5-5,2.5c-1.3,0-2.6-0.4-3.6-1.2
	c-0.1-0.1-0.2-0.1-0.2-0.2l-1.1-1l-1,0.6c-2.9,1.8-6.9,1.8-9.8,0l-1.1-0.7l-0.9,0.9c-3.1,3-8.3,3.4-11.8,0.8c-2-1.5-3.3-3.6-3.6-6
	c-0.4-2.4,0.2-4.9,1.7-6.8c1.7-2.4,4.4-3.7,7.5-3.7h0l1.2,0l0.4-1.1c0.2-0.7,0.5-1.2,0.8-1.7c2-2.7,5.9-3.3,8.6-1.3
	c0.7,0.5,1.3,1.2,1.7,2l0.4,0.7l0.9,0.1c1.7,0.1,3.3,0.7,4.7,1.8c1.3,1,2.3,2.3,3,3.8l0.5,1.1l1.2-0.2c1.6-0.2,3.2,0.2,4.4,1.1
	c1.3,1,2.2,2.4,2.4,4C848.4,249.3,848,250.9,847.1,252.2z"/>
<path d="M680.9,41.7c-1.7-0.2-3.4-0.1-5.1,0.2c-2.7-4.6-7.3-7.6-12.6-8.3c-3.6-0.4-7.2,0.3-10.4,2.1c-2.3-1.6-5-2.7-7.7-3
	c-5.2-0.6-10.3,1.2-13.9,4.8c-1.3-0.5-2.7-0.9-4.1-1c-9.4-1.1-17.8,5.6-18.9,14.9c-0.5,4.5,0.7,9,3.5,12.5c2.8,3.6,6.8,5.8,11.3,6.4
	c2.3,0.3,4.7,0.1,6.9-0.6c2.7,2.8,6.3,4.6,10.2,5.1c3.6,0.4,7.2-0.3,10.3-2.1c2.3,1.6,5,2.7,7.8,3c0.7,0.1,1.3,0.1,2,0.1
	c3.3,0,6.6-1,9.4-2.9c2.2,1.4,4.7,2.3,7.2,2.6c9.4,1.1,17.8-5.6,18.9-14.9C696.9,51.3,690.2,42.8,680.9,41.7z M692.7,60.2
	c-0.9,7.5-7.7,13.1-15.5,12.2c-2.4-0.3-4.7-1.2-6.7-2.7l-0.9-0.7l-0.9,0.7c-2.9,2.2-6.5,3.2-10.1,2.8c-2.6-0.3-5.1-1.4-7.1-3
	l-0.9-0.7l-0.9,0.6c-2.7,1.8-6,2.6-9.2,2.2c-3.5-0.4-6.6-2.1-8.9-4.8l-0.7-0.8l-1,0.4c-2.1,0.8-4.3,1.1-6.5,0.8
	c-3.7-0.4-7-2.3-9.3-5.2c-2.3-2.9-3.3-6.6-2.9-10.3c0.9-7.5,7.8-13.1,15.5-12.2c1.5,0.2,2.9,0.6,4.2,1.2l1,0.5l0.8-0.9
	c3.1-3.5,7.4-5.2,12-4.6c2.5,0.3,5,1.3,7,3l0.9,0.7l0.9-0.6c2.7-1.8,5.9-2.6,9.2-2.2c4.6,0.6,8.7,3.4,10.8,7.7l0.6,1.1l1.2-0.3
	c1.7-0.5,3.4-0.6,5.1-0.4C688.2,45.6,693.7,52.6,692.7,60.2z"/>
</svg>
